<svg width="254" height="171" viewBox="0 0 254 171" fill="none" xmlns="http://www.w3.org/2000/svg">
<circle cx="10.8605" cy="7.80236" r="3.21495" fill="#9146FF"/>
<circle cx="39.0113" cy="7.80236" r="3.21495" fill="#9146FF"/>
<circle cx="67.1621" cy="7.80236" r="3.21495" fill="#9146FF"/>
<circle cx="95.313" cy="7.80236" r="3.21495" fill="#9146FF"/>
<circle cx="123.464" cy="7.80236" r="3.21495" fill="#9146FF"/>
<circle cx="151.615" cy="7.80236" r="3.21495" fill="#9146FF"/>
<circle cx="179.765" cy="7.80236" r="3.21495" fill="#9146FF"/>
<circle cx="207.916" cy="7.80236" r="3.21495" fill="#9146FF"/>
<circle cx="236.067" cy="7.80236" r="3.21495" fill="#9146FF"/>
<circle cx="10.8605" cy="37.4823" r="3.21495" fill="#9146FF"/>
<circle cx="39.0113" cy="37.4823" r="3.21495" fill="#9146FF"/>
<circle cx="67.1621" cy="37.4823" r="3.21495" fill="#9146FF"/>
<circle cx="95.313" cy="37.4823" r="3.21495" fill="#9146FF"/>
<circle cx="123.464" cy="37.4823" r="3.21495" fill="#9146FF"/>
<circle cx="151.615" cy="37.4823" r="3.21495" fill="#9146FF"/>
<circle cx="179.765" cy="37.4823" r="3.21495" fill="#9146FF"/>
<circle cx="207.916" cy="37.4823" r="3.21495" fill="#9146FF"/>
<circle cx="236.067" cy="37.4823" r="3.21495" fill="#9146FF"/>
<circle cx="10.8605" cy="67.1622" r="3.21495" fill="#9146FF"/>
<circle cx="39.0113" cy="67.1622" r="3.21495" fill="#9146FF"/>
<circle cx="67.1621" cy="67.1622" r="3.21495" fill="#9146FF"/>
<circle cx="95.313" cy="67.1622" r="3.21495" fill="#9146FF"/>
<circle cx="123.464" cy="67.1622" r="3.21495" fill="#9146FF"/>
<circle cx="151.615" cy="67.1622" r="3.21495" fill="#9146FF"/>
<circle cx="179.765" cy="67.1622" r="3.21495" fill="#9146FF"/>
<circle cx="207.916" cy="67.1622" r="3.21495" fill="#9146FF"/>
<circle cx="236.067" cy="67.1622" r="3.21495" fill="#9146FF"/>
<circle cx="10.8605" cy="96.8421" r="3.21495" fill="#9146FF"/>
<circle cx="39.0113" cy="96.8421" r="3.21495" fill="#9146FF"/>
<circle cx="67.1621" cy="96.8421" r="3.21495" fill="#9146FF"/>
<circle cx="95.313" cy="96.8421" r="3.21495" fill="#9146FF"/>
<circle cx="123.464" cy="96.8421" r="3.21495" fill="#9146FF"/>
<circle cx="151.615" cy="96.8421" r="3.21495" fill="#9146FF"/>
<circle cx="179.765" cy="96.8421" r="3.21495" fill="#9146FF"/>
<circle cx="207.916" cy="96.8421" r="3.21495" fill="#9146FF"/>
<circle cx="236.067" cy="96.8421" r="3.21495" fill="#9146FF"/>
<circle cx="10.8605" cy="126.522" r="3.21495" fill="#9146FF"/>
<circle cx="39.0113" cy="126.522" r="3.21495" fill="#9146FF"/>
<circle cx="67.1621" cy="126.522" r="3.21495" fill="#9146FF"/>
<circle cx="95.313" cy="126.522" r="3.21495" fill="#9146FF"/>
<circle cx="123.464" cy="126.522" r="3.21495" fill="#9146FF"/>
<circle cx="151.615" cy="126.522" r="3.21495" fill="#9146FF"/>
<circle cx="179.765" cy="126.522" r="3.21495" fill="#9146FF"/>
<circle cx="207.916" cy="126.522" r="3.21495" fill="#9146FF"/>
<circle cx="236.067" cy="126.522" r="3.21495" fill="#9146FF"/>
<circle cx="10.8605" cy="156.202" r="3.21495" fill="#9146FF"/>
<circle cx="39.0113" cy="156.202" r="3.21495" fill="#9146FF"/>
<circle cx="67.1621" cy="156.202" r="3.21495" fill="#9146FF"/>
<circle cx="95.313" cy="156.202" r="3.21495" fill="#9146FF"/>
<circle cx="123.464" cy="156.202" r="3.21495" fill="#9146FF"/>
<circle cx="151.615" cy="156.202" r="3.21495" fill="#9146FF"/>
<circle cx="179.765" cy="156.202" r="3.21495" fill="#9146FF"/>
<circle cx="207.916" cy="156.202" r="3.21495" fill="#9146FF"/>
<circle cx="236.067" cy="156.202" r="3.21495" fill="#9146FF"/>
</svg>
